<svg width="45" height="46" viewBox="0 0 45 46" fill="none" xmlns="http://www.w3.org/2000/svg">
<path fill-rule="evenodd" clip-rule="evenodd" d="M9.91553 25.8636C9.91553 28.7183 12.4658 31.0314 15.6165 31.0314H26.9952V21.1652H20.6618V26.0795H17.6538C16.8667 26.0795 16.2277 25.5005 16.2277 24.7872V19.9952C16.2277 19.2832 16.6141 18.703 17.4007 18.703H22.4893L25.3394 15.0245H15.6165C12.4658 15.0245 9.91553 17.5755 9.91553 20.4309V25.8636ZM29.526 31.0314H35.8477V16.2925C35.8477 15.5793 35.21 15 34.4229 15H28.1905L25.3394 18.6929H28.1009C28.8879 18.6929 29.5259 19.2719 29.5259 19.9847V31.0314H29.526Z" fill="#999999"/>
</svg>
