<svg width="45" height="46" viewBox="0 0 45 46" fill="none" xmlns="http://www.w3.org/2000/svg">
<path fill-rule="evenodd" clip-rule="evenodd" d="M18.7831 15.9439C17.182 14.4022 16.0258 14.0015 14.2447 14.0015C10.1036 14.0015 6.99365 17.4592 6.99365 22.0871C6.99365 26.6579 9.98454 29.908 14.1212 29.908C16.0258 29.908 17.1523 29.5716 18.6328 27.9436V28.3429C18.6328 29.9153 18.5138 30.5135 17.9974 31.2566C17.3025 32.2 15.7238 32.7997 14.3325 32.7997C13.276 32.7997 12.038 32.5422 10.9503 31.9718L10.0723 31.5155C9.77027 31.3721 9.43844 31.2858 9.16763 31.2858C8.25994 31.2858 7.41476 32.0566 7.41476 32.9138C7.41476 34.4861 10.7062 36 14.1509 36C16.6895 36 19.2369 35.1721 20.594 33.7153C21.8648 32.3697 22.4391 30.6583 22.4391 28.201V15.6016C22.4391 14.7445 21.591 14.06 20.5345 14.06C19.5673 14.06 18.7831 14.7445 18.7831 15.6016V15.9439ZM14.697 17.3729C15.8726 17.3729 17.182 17.9434 17.8471 18.8297C18.4215 19.6313 18.6626 20.5162 18.6626 22.0886C18.6626 23.6024 18.4215 24.4318 17.7847 25.2596C17.121 26.1167 15.8145 26.6301 14.7268 26.6301C12.4606 26.6301 10.9205 24.7433 10.9205 21.9745C10.9205 19.2305 12.4591 17.3744 14.6956 17.3744L14.697 17.3729ZM37.0617 23.1095L27.7215 23.0949C27.9641 23.9213 28.2661 24.6307 28.537 25.087C29.1411 26.086 30.5011 26.6843 31.9504 26.6843C33.0664 26.6843 34.0961 26.399 35.1839 25.7423C36.1808 25.1134 36.5469 24.9993 36.9992 24.9993C37.9962 24.9993 38.6628 25.6575 38.6628 26.5131C38.6628 26.9417 38.4203 27.4273 37.9977 27.8295C36.5469 29.1138 34.0961 29.9138 31.7391 29.9138C26.9374 29.9138 23.6191 26.6565 23.6191 22.0301C23.6191 17.4855 26.9374 14 31.3166 14C33.5218 14 35.6109 14.8864 36.971 16.4865C38.1167 17.8 38.9649 19.8799 38.9649 21.4801C38.9649 22.6795 38.45 23.108 37.0602 23.108L37.0617 23.1095ZM31.3478 17.0204C33.312 17.0204 34.5172 18.2959 34.9711 20.8087H27.662C28.0846 18.3514 29.4134 17.0204 31.3463 17.0204H31.3478Z" fill="#999999"/>
</svg>
