<svg width="43" height="44" viewBox="0 0 43 44" fill="none" xmlns="http://www.w3.org/2000/svg">
<path d="M21.5003 43.1187C9.62572 43.1187 0 33.6561 0 21.9828C0 10.3095 9.62572 0.847466 21.5003 0.847466C33.3748 0.847466 43 10.31 43 21.9828C43 33.6556 33.3743 43.1187 21.5003 43.1187ZM39.1601 13.0359C39.0345 12.1956 38.4723 11.6028 37.5728 11.4782C37.5728 11.4782 30.3436 10.9086 21.6399 10.8976H21.3601C12.6564 10.9071 5.42876 11.4782 5.42178 11.4782C4.52773 11.6049 3.96552 12.1956 3.83933 13.037C3.83933 13.037 3.29001 16.9137 3.29001 21.7389C3.29001 21.8202 3.29001 21.902 3.29001 21.9828C3.29001 22.0636 3.29001 22.1454 3.29001 22.2272C3.29001 27.0524 3.83933 30.9265 3.83987 30.9302C3.96552 31.7711 4.52773 32.3628 5.42715 32.4879C5.42715 32.4879 12.6564 33.0575 21.3601 33.0686H21.6399C30.3436 33.0596 37.5712 32.4879 37.5782 32.4879C38.4723 32.3639 39.0345 31.7721 39.1607 30.9302C39.1607 30.9275 39.71 27.0535 39.71 22.2283C39.71 22.1464 39.71 22.0651 39.71 21.9844C39.71 21.9036 39.71 21.8213 39.71 21.74C39.71 16.9137 39.1607 13.0391 39.1601 13.0359Z" fill="#999999"/>
<path d="M30.5176 20.5556C31.3208 25.4523 27.934 30.0618 22.9529 30.8514C17.9719 31.641 13.2829 28.3115 12.4797 23.4149C11.6765 18.5183 15.0633 13.9088 20.0444 13.1192C25.0254 12.3296 29.7144 15.659 30.5176 20.5556Z" fill="#999999"/>
</svg>
