<svg width="45" height="46" viewBox="0 0 45 46" fill="none" xmlns="http://www.w3.org/2000/svg">
<path d="M28.2158 20.5621C27.0842 19.5487 22.5068 16.9701 21.0234 16.4015C19.5388 15.834 17.8374 16.6886 17.4879 18.4463C17.1395 20.2029 17.1395 24.8556 17.4879 26.7676C17.8362 28.6818 18.887 29.5567 21.0234 28.8135C23.1586 28.0704 26.6447 25.9096 28.2158 24.6518C29.7881 23.394 29.3486 21.5778 28.2158 20.5621Z" fill="#999999"/>
<path d="M22.5343 5.86206C13.2808 5.86206 5.7793 13.3793 5.7793 22.6509C5.7793 31.9214 13.2808 39.4375 22.5354 39.4375C31.7879 39.4375 39.2894 31.9214 39.2894 22.6509C39.2894 13.3793 31.7879 5.86206 22.5343 5.86206ZM30.6742 32.374C28.5187 32.6026 17.0276 32.7163 14.3956 32.374C11.7636 32.0306 10.687 30.774 10.3274 28.4848C9.96777 26.1945 9.96777 18.5263 10.3274 16.8103C10.687 15.0954 12.1581 12.921 14.3956 12.921C19.8122 12.4633 25.2576 12.4633 30.6742 12.921C32.9106 12.921 34.5019 14.4074 34.7424 16.8103C34.9806 19.2143 35.1009 25.9681 34.7424 28.4848C34.3828 31.0003 32.8285 32.1443 30.6742 32.374Z" fill="#999999"/>
<mask id="mask0" mask-type="alpha" maskUnits="userSpaceOnUse" x="10" y="11" width="36" height="35">
<path d="M39.2901 22.6508C39.2901 31.9212 31.7886 39.4374 22.5351 39.4374C20.1821 39.4399 17.8551 38.9444 15.7064 37.9835C13.5577 37.0227 11.6357 35.6179 10.0663 33.8614L10.0596 33.8557L19.4581 45.0877H34.3431C37.1695 45.0877 39.8802 43.9627 41.8788 41.9602C43.8774 39.9577 45.0003 37.2417 45.0003 34.4097V22.1508L35.0949 11.5449C37.8025 14.6078 39.2951 18.5592 39.2901 22.6508Z" fill="#999999"/>
</mask>
<g mask="url(#mask0)">
</g>
<mask id="mask1" mask-type="alpha" maskUnits="userSpaceOnUse" x="18" y="20" width="17" height="13">
<path d="M18.338 28.5951L18.2402 28.4938L18.338 28.5951ZM27.9736 20.3606C28.0658 20.4327 28.1478 20.5002 28.2175 20.5633C29.3492 21.5767 29.7886 23.3929 28.2175 24.6507C26.6453 25.9096 23.1603 28.0693 21.0251 28.8124C19.7506 29.2561 18.8651 29.121 18.2829 28.5377L22.2006 32.5891C25.844 32.5812 29.5447 32.4934 30.6753 32.3729C32.8308 32.1443 34.3839 30.9992 34.7435 28.4836C34.8469 27.7585 34.9099 26.6809 34.9424 25.4569L27.9736 20.3606Z" fill="#999999"/>
</mask>
<g mask="url(#mask1)">
</g>
</svg>
