<svg width="59" height="46" viewBox="0 0 59 46" fill="none" xmlns="http://www.w3.org/2000/svg">
<path fill-rule="evenodd" clip-rule="evenodd" d="M9.66119 23.3206C10.0129 23.3206 10.3185 23.4479 10.566 23.694C10.8187 23.9385 10.945 24.2406 10.945 24.5903C10.945 25.9482 10.4158 27.1806 9.36413 28.2466C8.31248 29.3159 7.08669 29.8557 5.71921 29.8557C4.12124 29.8557 2.75375 29.3024 1.65601 28.2126C0.556556 27.1229 0 25.7683 0 24.1795C0 22.5941 0.556556 21.2379 1.65601 20.1498C2.75375 19.0634 4.12124 18.5118 5.71921 18.5118C7.06791 18.5118 8.28687 18.948 9.33852 19.8069C9.69704 20.0989 9.8763 20.474 9.8763 20.9204C9.8763 21.3176 9.7346 21.6588 9.45632 21.9321C9.17634 22.2037 8.83148 22.3446 8.43199 22.3446C8.08713 22.3446 7.77641 22.2325 7.51009 22.0119C6.99109 21.5807 6.40551 21.372 5.7175 21.372C4.9151 21.372 4.24928 21.6367 3.69785 22.1816C3.14471 22.7248 2.87497 23.38 2.87497 24.1778C2.87497 24.9756 3.14471 25.6308 3.69785 26.1774C4.2527 26.7257 4.91339 26.9921 5.71921 26.9921C6.18016 26.9921 6.6155 26.8564 7.0167 26.5882C7.29839 26.4014 7.54594 26.1638 7.74398 25.8786H6.43453C6.07601 25.8786 5.76871 25.7547 5.51775 25.5086C5.26679 25.2625 5.14216 24.9586 5.14216 24.6039C5.14216 24.2474 5.26679 23.9419 5.51775 23.6957C5.76701 23.4462 6.07602 23.3223 6.43283 23.3223H9.65948L9.66119 23.3206ZM17.2379 23.156C18.1017 23.5464 18.7317 23.9334 19.1295 24.3204C19.6758 24.8551 19.9489 25.5137 19.9489 26.2962C19.9489 27.4538 19.4948 28.3773 18.5831 29.0664C17.7534 29.6894 16.7393 30 15.5392 30C14.6002 30 13.7466 29.8303 12.9783 29.4874C11.9881 29.046 11.493 28.4146 11.493 27.5913C11.493 27.2009 11.5989 26.8716 11.8174 26.5966C12.0513 26.2911 12.3569 26.1383 12.7342 26.1383C13.0705 26.1383 13.5742 26.2945 14.2434 26.6085C14.9126 26.9243 15.4162 27.0804 15.7526 27.0804C16.3586 27.0804 16.6608 26.8597 16.6608 26.4184C16.6608 26.0789 16.1401 25.7089 15.097 25.3151L14.8853 25.2336C13.9224 24.867 13.2088 24.4749 12.7444 24.059C12.1042 23.4819 11.785 22.7723 11.785 21.9202C11.785 20.8305 12.2032 19.9648 13.0398 19.3231C13.7995 18.729 14.7436 18.4286 15.8704 18.4286C16.7206 18.4286 17.5195 18.5983 18.269 18.931C19.2199 19.3588 19.6946 19.9444 19.6946 20.6879C19.6946 21.0664 19.5665 21.3889 19.3104 21.6486C19.0543 21.91 18.7334 22.039 18.3493 22.039C18.1 22.039 17.6664 21.91 17.0518 21.6486C16.4406 21.3889 15.9933 21.2582 15.7201 21.2582C15.225 21.2582 14.9809 21.4449 14.9809 21.8184C14.9809 22.1205 15.4128 22.4362 16.275 22.7638C16.6676 22.9098 16.9869 23.0405 17.2361 23.1543L17.2379 23.156ZM27.0715 18.5491C29.7228 18.5491 31.0493 19.975 31.0493 22.8233V27.4708C31.0493 29.0427 30.4996 29.8303 29.4035 29.8303C28.3075 29.8303 27.7595 29.0427 27.7595 27.4708V23.8078C27.7595 23.0236 27.6639 22.4447 27.4693 22.0713C27.1995 21.5553 26.713 21.2973 26.0062 21.2973C24.8487 21.2973 24.2716 22.1188 24.2716 23.7653V27.4691C24.2716 29.0409 23.7253 29.8286 22.6327 29.8286C21.5469 29.8286 21.004 29.0409 21.004 27.4691V16.3679C21.004 14.7893 21.5469 14 22.6327 14C23.7253 14 24.2716 14.791 24.2716 16.3696V19.571C24.9323 18.8886 25.8662 18.5474 27.0715 18.5474V18.5491ZM58.5869 19.0889C58.86 19.3843 59 19.7679 59 20.2347C59 20.4893 58.9198 20.8424 58.7576 21.2973L56.2514 28.3722C55.8758 29.4297 55.2544 29.9576 54.3905 29.9576C53.3662 29.9576 52.7106 29.3974 52.4204 28.2703L51.0717 23.1186L49.8049 28.3722C49.5488 29.4297 48.9291 29.9576 47.944 29.9576C47.0324 29.9576 46.3734 29.3974 45.9705 28.272L43.3806 21.0834C43.2611 20.749 43.1996 20.4587 43.1996 20.2109C43.1996 19.7441 43.3447 19.3588 43.635 19.0567C43.9252 18.7562 44.3008 18.6068 44.7669 18.6068C45.5761 18.6068 46.1361 19.133 46.4451 20.1922L48.166 26.1129L49.5608 20.1719C49.7929 19.1941 50.2949 18.7053 51.0699 18.7053C51.9201 18.7053 52.4733 19.206 52.7294 20.2109L54.2147 26.0229L55.9389 19.9801C56.195 19.0923 56.7072 18.6459 57.4755 18.6459C57.9398 18.6459 58.312 18.7935 58.5851 19.0872L58.5869 19.0889ZM37.5709 18.4778C39.1842 18.4778 40.5551 19.038 41.6853 20.1583C42.8155 21.2786 43.3806 22.6399 43.3806 24.2389C43.3806 25.8379 42.8172 27.1975 41.687 28.3178C40.5568 29.4381 39.1859 29.9983 37.5726 29.9983C35.9627 29.9983 34.5918 29.4381 33.4616 28.3178C32.3348 27.1975 31.768 25.8396 31.768 24.2389C31.768 22.6467 32.3349 21.2854 33.4667 20.1651C34.6003 19.0397 35.9695 18.4778 37.5743 18.4778H37.5709ZM40.183 26.7817C39.4728 27.4878 38.5987 27.8443 37.588 27.8443C36.5773 27.8443 35.7049 27.4878 34.9981 26.7817C34.293 26.0755 33.9345 25.2115 33.9345 24.2101C33.9345 23.986 34.1172 23.8027 34.3443 23.8027C34.5713 23.8027 34.754 23.986 34.754 24.2101C34.754 24.9994 35.0237 25.6529 35.5803 26.2079C36.1385 26.7613 36.7958 27.0312 37.5914 27.0312C38.3887 27.0312 39.0477 26.7596 39.6059 26.2062C40.1693 25.6546 40.4391 25.0011 40.4391 24.2118C40.4391 23.9877 40.6234 23.8044 40.8488 23.8044C41.0758 23.8044 41.2585 23.9877 41.2585 24.2118C41.2585 25.2132 40.9 26.0789 40.1864 26.7834L40.183 26.7817Z" fill="#999999"/>
</svg>
