<svg width="40" height="40" viewBox="0 0 40 40" fill="none" xmlns="http://www.w3.org/2000/svg">
<circle cx="20" cy="20" r="20" fill="#C4C4C4"/>
<path d="M20.4393 13.0769C16.6152 13.0769 13.5347 16.1574 13.5347 19.9815C13.5347 23.8162 16.6152 26.8861 20.4393 26.8861C24.2634 26.8861 27.3439 23.8162 27.3439 19.9815C27.3439 16.1574 24.2634 13.0769 20.4393 13.0769ZM20.4393 24.8359C17.7943 24.8359 15.6592 22.7008 15.6592 20.0558C15.6592 17.4215 17.7943 15.2757 20.4393 15.2757C23.0843 15.2757 25.2194 17.4215 25.2194 20.0558C25.2194 22.7008 23.0843 24.8359 20.4393 24.8359ZM32.0103 35.384C31.2317 35.384 30.8695 34.9018 30.8695 34.4726C30.8695 32.4756 27.0454 31.1372 20.4382 31.1372C13.8311 31.1372 10.0091 32.3428 10.0091 34.4726C10.0091 34.9028 9.57362 35.3861 8.85129 35.3861C8.0716 35.384 7.69238 34.8656 7.69238 34.4386C7.69238 31.0925 12.5766 29.0127 20.4393 29.0127C28.302 29.0127 33.1862 31.0925 33.1862 34.4386C33.1862 34.8678 32.7634 35.384 32.0103 35.384Z" fill="#999999"/>
</svg>
