<svg width="20" height="15" viewBox="0 0 20 15" fill="none" xmlns="http://www.w3.org/2000/svg">
<path d="M6.97001 10.101L5.62301 11.448C4.46048 10.2883 3.80802 8.71309 3.81001 7.071C3.81001 5.361 4.50301 3.814 5.62301 2.693L6.97001 4.04C6.16534 4.8433 5.71373 5.93399 5.71501 7.071C5.71501 8.254 6.19501 9.326 6.97001 10.101ZM4.27601 12.795L2.92901 14.142C1.05089 12.2689 -0.00321633 9.72451 1.00179e-05 7.072C-0.00374882 4.4188 1.0504 1.87358 2.92901 0L4.27601 1.347C2.75556 2.86353 1.90227 4.92353 1.90501 7.071C1.90227 9.21847 2.75556 11.2785 4.27601 12.795ZM13.03 4.041L14.377 2.694C15.5395 3.85373 16.192 5.42891 16.19 7.071C16.19 8.781 15.497 10.328 14.377 11.449L13.03 10.102C13.8347 9.2987 14.2863 8.20801 14.285 7.071C14.285 5.888 13.805 4.816 13.03 4.041ZM15.724 1.347L17.071 0C18.9497 1.87317 20.0042 4.418 20.001 7.071C20.0042 9.724 18.9497 12.2688 17.071 14.142L15.724 12.795C17.2445 11.2785 18.0977 9.21847 18.095 7.071C18.098 4.92368 17.2451 2.8637 15.725 1.347H15.724Z" fill="#F3231E"/>
<path d="M12.3807 7.071C12.3982 7.93347 11.948 8.73799 11.2038 9.17425C10.4596 9.6105 9.53771 9.61031 8.7937 9.17374C8.04968 8.73717 7.59985 7.93246 7.6177 7.07C7.64453 5.77376 8.70317 4.73703 9.99969 4.7373C11.2962 4.73758 12.3544 5.77475 12.3807 7.071Z" fill="#F3231E"/>
</svg>
