<svg width="21" height="20" viewBox="0 0 21 20" fill="none" xmlns="http://www.w3.org/2000/svg">
<path d="M20.0294 17.77L14.3094 12.04C15.2894 10.78 15.8594 9.21 15.8594 7.5C15.8594 3.36 12.4994 0 8.35938 0C4.20937 0 0.859375 3.36 0.859375 7.5C0.859375 11.64 4.20937 15 8.35938 15C10.0594 15 11.6294 14.43 12.8894 13.46L18.6194 19.19C19.0394 19.6 19.6894 19.62 20.0794 19.23C20.4694 18.84 20.4494 18.19 20.0294 17.77ZM8.35938 13C5.31938 13 2.85938 10.54 2.85938 7.5C2.85938 4.46 5.31938 2 8.35938 2C11.3894 2 13.8594 4.46 13.8594 7.5C13.8594 10.54 11.3894 13 8.35938 13Z" fill="#999999"/>
</svg>
