<svg width="20" height="13" viewBox="0 0 20 13" fill="none" xmlns="http://www.w3.org/2000/svg">
<path fill-rule="evenodd" clip-rule="evenodd" d="M0 8.37096C0 10.5706 1.96691 12.3529 4.3968 12.3529H13.1726V4.75055H8.28801V8.53733H5.96809C5.36105 8.53733 4.8682 8.09114 4.8682 7.54155V3.84906C4.8682 3.3004 5.16625 2.85337 5.77289 2.85337H9.69738L11.8955 0.0188503H4.3968C1.96691 0.0188503 0 1.98457 0 4.18476V8.37096ZM15.1245 12.3529H20V0.995936C20 0.44639 19.5081 0 18.9011 0H14.0945L11.8955 2.84559H14.0254C14.6323 2.84559 15.1244 3.2917 15.1244 3.84092V12.3529H15.1245Z" fill="#C41A0B"/>
</svg>
