<svg width="80" height="9" viewBox="0 0 80 9" fill="none" xmlns="http://www.w3.org/2000/svg">
<path d="M4.29767 8.02589C3.74666 8.02732 3.19951 7.93426 2.68016 7.75077C2.1748 7.57531 1.70809 7.30443 1.30556 6.95294C0.886026 6.58665 0.551869 6.13341 0.326478 5.62493C0.101087 5.11644 -0.0100929 4.56501 0.000719402 4.00922C-0.00814902 3.42855 0.111274 2.85304 0.350518 2.32352C0.56968 1.84165 0.889657 1.41204 1.289 1.0635C1.68854 0.719419 2.14915 0.452891 2.64704 0.277669C3.15876 0.0942213 3.69865 0.00112199 4.24246 0.0025542C4.57887 -0.000650995 4.91486 0.0269767 5.24619 0.0850885C5.50334 0.128126 5.75287 0.208161 5.98694 0.322687C6.17126 0.411309 6.32634 0.550575 6.43393 0.724089C6.54151 0.897603 6.59711 1.09814 6.59419 1.30209C6.60183 1.4085 6.58711 1.51533 6.55099 1.61576C6.51487 1.71618 6.45814 1.808 6.38441 1.88534C6.31187 1.95251 6.22674 2.00476 6.13391 2.0391C6.04107 2.07343 5.94235 2.08917 5.84341 2.08542C5.77448 2.08418 5.70593 2.07495 5.63915 2.05791C5.54915 2.03657 5.45898 2.01639 5.36864 1.99738C5.24318 1.96787 5.10366 1.94036 4.94909 1.91485C4.78849 1.88869 4.62601 1.87581 4.46328 1.87633C4.17313 1.87476 3.88509 1.9256 3.61313 2.0264C3.3569 2.12002 3.12222 2.26411 2.92307 2.45007C2.72454 2.63814 2.56673 2.86472 2.45934 3.11585C2.34202 3.39248 2.28374 3.69041 2.28821 3.99071C2.28291 4.30043 2.34507 4.60762 2.47039 4.89109C2.58545 5.14652 2.7528 5.37517 2.96171 5.56236C3.17294 5.74898 3.41856 5.89288 3.68489 5.98604C3.96284 6.08594 4.25615 6.13672 4.55161 6.1361C4.7295 6.13721 4.90706 6.12045 5.08158 6.08608C5.24351 6.05274 5.39072 6.01789 5.52322 5.98154C5.60402 5.95953 5.6813 5.93952 5.75508 5.92101C5.82726 5.90277 5.90143 5.89353 5.9759 5.8935C6.06735 5.89217 6.15795 5.91124 6.24105 5.94932C6.32415 5.98741 6.39766 6.04353 6.45618 6.11359C6.58603 6.2629 6.65497 6.45531 6.6494 6.65282C6.65664 6.86685 6.60305 7.07857 6.49482 7.26357C6.39241 7.42736 6.25239 7.56452 6.08631 7.66374C5.83998 7.79775 5.57332 7.89069 5.29688 7.93885C4.96735 7.99962 4.63278 8.0291 4.29767 8.02689V8.02589ZM11.4081 8.03689C10.8644 8.0398 10.3251 7.94088 9.81816 7.74527C9.32987 7.55848 8.882 7.28018 8.49876 6.92543C8.09946 6.5523 7.78273 6.10018 7.56884 5.59802C7.35495 5.09585 7.24862 4.5547 7.25665 4.00922C7.24975 3.44847 7.36462 2.89288 7.5934 2.38054C7.80729 1.90314 8.11438 1.47294 8.49675 1.11502C8.87999 0.760267 9.32786 0.481972 9.81615 0.295176C10.8383 -0.0936542 11.9683 -0.0936542 12.9904 0.295176C13.4808 0.481032 13.9307 0.759394 14.3154 1.11502C14.6977 1.47294 15.0048 1.90314 15.2187 2.38054C15.4475 2.89288 15.5624 3.44847 15.5555 4.00922C15.564 4.55441 15.4583 5.09537 15.2451 5.59752C15.0319 6.09967 14.7159 6.55195 14.3174 6.92543C13.9341 7.28018 13.4863 7.55848 12.998 7.74527C12.491 7.94088 11.9517 8.0398 11.4081 8.03689ZM11.4081 6.08908C11.6845 6.09184 11.9583 6.03555 12.211 5.92402C12.4515 5.81825 12.669 5.66687 12.8514 5.47833C13.0338 5.28811 13.1764 5.06367 13.271 4.81806C13.3717 4.56027 13.4228 4.28587 13.4215 4.00922C13.4232 3.73433 13.3721 3.46166 13.271 3.20589C13.1754 2.9624 13.0328 2.73995 12.8514 2.55111C12.6697 2.3631 12.4519 2.2134 12.211 2.11093C11.9574 2.0056 11.6853 1.95136 11.4106 1.95136C11.1358 1.95136 10.8637 2.0056 10.6101 2.11093C10.3692 2.2134 10.1514 2.3631 9.96972 2.55111C9.78811 2.73981 9.64555 2.9623 9.55016 3.20589C9.44907 3.46165 9.39797 3.73433 9.3996 4.00922C9.39834 4.28587 9.44942 4.56027 9.55016 4.81806C9.64482 5.06364 9.78743 5.28806 9.96972 5.47833C10.1514 5.66686 10.368 5.81855 10.6076 5.92502C10.8597 6.03552 11.1326 6.09111 11.4081 6.08808V6.08908ZM22.703 0.0135587C22.8454 0.00573891 22.9879 0.0260158 23.1225 0.0732263C23.257 0.120437 23.3808 0.193652 23.4869 0.288673C23.5857 0.390191 23.6623 0.511107 23.7117 0.643727C23.7612 0.776347 23.7824 0.917768 23.774 1.05899V7.04548C23.7834 7.30354 23.6937 7.55547 23.523 7.74977C23.4351 7.84301 23.3278 7.91595 23.2086 7.96348C23.0893 8.011 22.9612 8.03196 22.833 8.02489C22.698 8.02686 22.5637 8.0064 22.4355 7.96436C22.3137 7.92195 22.1985 7.86268 22.0932 7.78829C21.9711 7.70097 21.8582 7.60141 21.7565 7.49117C21.6283 7.35411 21.505 7.21288 21.3866 7.06749L18.6484 3.66608V6.97845C18.657 7.11878 18.637 7.25938 18.5895 7.39177C18.5421 7.52416 18.4682 7.64561 18.3724 7.74877C18.2671 7.84493 18.1434 7.91887 18.0086 7.96614C17.8739 8.01342 17.731 8.03306 17.5885 8.02389C17.4473 8.03792 17.3047 8.02051 17.171 7.97294C17.0374 7.92536 16.916 7.84879 16.8156 7.74877C16.7153 7.64874 16.6385 7.52776 16.5907 7.39454C16.543 7.26133 16.5255 7.11921 16.5396 6.97845V1.04799C16.5266 0.777693 16.6108 0.511636 16.777 0.297677C16.8695 0.197482 16.9837 0.119634 17.1109 0.0700538C17.2382 0.0204737 17.3751 0.000467802 17.5112 0.0115579C17.7553 0.00144785 17.9958 0.071768 18.1958 0.211641C18.4014 0.372095 18.5868 0.556858 18.7478 0.76187L21.6626 4.41339V1.05899C21.6541 0.919122 21.6737 0.778965 21.7201 0.646705C21.7665 0.514444 21.839 0.392732 21.9331 0.288673C22.0354 0.192964 22.1562 0.119169 22.2882 0.0718499C22.4202 0.0245304 22.5605 0.00469125 22.7005 0.0135587H22.703ZM30.1777 0.1136C30.4118 0.11426 30.6361 0.207225 30.8016 0.372182C30.9671 0.53714 31.0603 0.760682 31.061 0.993966C31.063 1.11093 31.041 1.22706 30.9964 1.33526C30.9518 1.44346 30.8855 1.54145 30.8015 1.62323C30.7207 1.7064 30.6237 1.77223 30.5164 1.8167C30.4091 1.86117 30.2939 1.88333 30.1777 1.88184H28.8729V6.92543C28.8753 7.06917 28.8487 7.21193 28.7947 7.34521C28.7406 7.47849 28.6602 7.59956 28.5582 7.70122C28.4562 7.80287 28.3347 7.88303 28.201 7.93692C28.0673 7.99081 27.924 8.01732 27.7798 8.01488C27.6322 8.01623 27.4858 7.98817 27.3492 7.93235C27.2191 7.87893 27.1009 7.80039 27.0014 7.70125C26.7934 7.4918 26.6764 7.20916 26.6757 6.91443V1.88434H25.399C25.2813 1.8871 25.1643 1.86529 25.0556 1.82032C24.9469 1.77536 24.8488 1.70822 24.7676 1.62323C24.6848 1.54021 24.6196 1.44138 24.576 1.33265C24.5323 1.22392 24.5111 1.10754 24.5137 0.990465C24.5125 0.875805 24.5343 0.762061 24.5779 0.655955C24.6215 0.54985 24.686 0.453536 24.7676 0.372708C24.8489 0.287946 24.9471 0.221029 25.0558 0.176239C25.1645 0.13145 25.2814 0.109774 25.399 0.1126L30.1777 0.1136ZM38.0831 6.6163C38.1402 6.77527 38.17 6.94267 38.1714 7.11151C38.1763 7.35398 38.0863 7.58883 37.9205 7.76628C37.8189 7.86272 37.6981 7.93662 37.5658 7.98309C37.4335 8.02956 37.2929 8.04756 37.1531 8.03589C37.0165 8.04546 36.8794 8.02802 36.7496 7.98459C36.6198 7.94115 36.4999 7.87257 36.3968 7.78279C36.2037 7.58052 36.0618 7.33532 35.9828 7.06749C35.9677 7.01747 35.9517 6.96095 35.9326 6.90242C35.9135 6.8439 35.8939 6.78437 35.8719 6.72635H33.5121C33.4713 6.83506 33.4345 6.94511 33.4017 7.05649C33.3148 7.3242 33.1653 7.56748 32.9656 7.76628C32.7376 7.96041 32.4421 8.05726 32.143 8.03589C32.0185 8.04252 31.8939 8.02346 31.777 7.97991C31.6602 7.93636 31.5536 7.86925 31.464 7.78279C31.3812 7.6987 31.3164 7.59883 31.2732 7.48916C31.2301 7.37948 31.2097 7.26227 31.2131 7.14452C31.2131 7.07085 31.2186 6.99728 31.2296 6.92443C31.2452 6.83434 31.2692 6.74592 31.3014 6.66032L33.2998 1.05799C33.3934 0.741186 33.5799 0.459506 33.8353 0.249157C34.0896 0.0751211 34.3938 -0.0117815 34.702 0.00155373C35.0069 -0.0129308 35.308 0.0741856 35.5577 0.249157C35.8067 0.459435 35.9897 0.736776 36.0846 1.04799L38.0831 6.6163ZM35.4332 5.11968C35.3228 4.70884 35.2069 4.28333 35.0854 3.84315C34.964 3.40297 34.837 2.96312 34.7045 2.5236C34.4449 3.38563 34.1983 4.25132 33.9648 5.12068L35.4332 5.11968ZM47.8212 3.28192C47.9881 3.27695 48.154 3.3089 48.307 3.37546C48.4317 3.43187 48.5414 3.51668 48.6272 3.62306C48.7071 3.72387 48.7654 3.83999 48.7983 3.9642C48.8317 4.08988 48.8486 4.21935 48.8485 4.34936C48.8569 4.8715 48.7593 5.38994 48.5615 5.87349C48.3804 6.30977 48.1096 6.70339 47.7665 7.02898C47.418 7.35417 47.0066 7.60506 46.5575 7.76628C46.0673 7.9427 45.5495 8.03028 45.0283 8.02489C44.4594 8.02977 43.8944 7.93094 43.3612 7.73327C42.8657 7.55102 42.4115 7.27233 42.0252 6.91343C41.6484 6.55936 41.3478 6.13251 41.1419 5.65891C40.9253 5.15879 40.8162 4.61896 40.8217 4.07425C40.8156 3.51003 40.9304 2.95101 41.1585 2.43457C41.3767 1.94424 41.6966 1.50547 42.097 1.14703C42.5134 0.77833 42.9969 0.492563 43.5213 0.30518C44.0965 0.098902 44.7041 -0.00357436 45.3154 0.0025542C45.6015 0.00304702 45.8873 0.021424 46.1711 0.057577C46.4466 0.0906544 46.7183 0.149608 46.9826 0.23365C47.2986 0.309781 47.5931 0.456541 47.8438 0.662829C47.9457 0.75379 48.0263 0.866039 48.0797 0.991579C48.1332 1.11712 48.1582 1.25286 48.1529 1.38913C48.1611 1.60157 48.0858 1.80881 47.9432 1.96687C47.8797 2.03865 47.8016 2.09596 47.7139 2.13489C47.6263 2.17382 47.5312 2.19346 47.4353 2.19246C47.3092 2.19101 47.1842 2.1687 47.0654 2.12644C46.9364 2.08242 46.7914 2.0364 46.6293 1.98888C46.4672 1.94136 46.283 1.89534 46.0772 1.85132C45.8447 1.80475 45.6078 1.78262 45.3706 1.7853C45.0592 1.78167 44.75 1.8377 44.4597 1.95036C44.1931 2.05426 43.9508 2.21157 43.7476 2.41256C43.5446 2.61715 43.385 2.86042 43.2783 3.12785C43.1614 3.42191 43.1032 3.73594 43.1072 4.05224C43.1027 4.35635 43.1551 4.65864 43.2618 4.94361C43.3573 5.19621 43.5039 5.42656 43.6924 5.62039C43.8761 5.80722 44.0958 5.95508 44.3383 6.05507C44.7883 6.23714 45.2875 6.25852 45.7515 6.11559C45.9383 6.05755 46.1138 5.96824 46.2705 5.85148C46.4173 5.74222 46.5395 5.60352 46.6293 5.44432C46.7182 5.28395 46.7674 5.10474 46.7728 4.9216H45.9116C45.8016 4.92805 45.6915 4.91158 45.5882 4.87323C45.4849 4.83488 45.3908 4.77551 45.3119 4.69888C45.2329 4.62226 45.1709 4.53008 45.1296 4.42821C45.0884 4.32635 45.069 4.21704 45.0725 4.10726C45.0698 3.99785 45.0889 3.889 45.1287 3.787C45.1685 3.68499 45.2282 3.59187 45.3044 3.51301C45.3824 3.43249 45.4773 3.37005 45.5822 3.33012C45.6871 3.29018 45.7996 3.27373 45.9116 3.28192H47.8217H47.8212ZM50.8575 7.92585C50.7091 7.93423 50.5605 7.91326 50.4203 7.86415C50.2801 7.81505 50.151 7.73877 50.0404 7.63973C49.9369 7.53197 49.8569 7.40394 49.8056 7.26376C49.7543 7.12358 49.7327 6.9743 49.7423 6.82539V1.11402C49.7347 0.96741 49.7566 0.820761 49.8069 0.682767C49.8571 0.544772 49.9347 0.418243 50.0349 0.310682C50.1498 0.205823 50.285 0.125397 50.4321 0.0743127C50.5792 0.0232283 50.7352 0.00255643 50.8906 0.0135587C51.0451 0.00250859 51.2003 0.0221061 51.3472 0.0712176C51.4941 0.120329 51.6297 0.19798 51.7463 0.299678C51.8483 0.408279 51.9269 0.536572 51.9772 0.676635C52.0275 0.816697 52.0485 0.965555 52.0389 1.11402V6.11009H53.704C53.8219 6.10285 53.94 6.12069 54.0504 6.16243C54.1608 6.20417 54.261 6.26886 54.3444 6.35219C54.429 6.43758 54.4952 6.53932 54.5389 6.65115C54.5825 6.76298 54.6028 6.88254 54.5984 7.00246C54.605 7.12661 54.5859 7.2508 54.5422 7.36725C54.4985 7.4837 54.4312 7.58991 54.3444 7.67924C54.2601 7.76173 54.1599 7.8264 54.0498 7.86937C53.9398 7.91235 53.8222 7.93275 53.704 7.92935H50.8555L50.8575 7.92585ZM59.2707 8.03589C58.7271 8.0388 58.1878 7.93988 57.6808 7.74427C57.1926 7.55777 56.7447 7.27982 56.3614 6.92543C55.9621 6.5523 55.6454 6.10018 55.4315 5.59802C55.2176 5.09585 55.1113 4.5547 55.1193 4.00922C55.1124 3.44847 55.2273 2.89288 55.456 2.38054C55.6699 1.90314 55.977 1.47294 56.3594 1.11502C56.7426 0.760267 57.1905 0.481972 57.6788 0.295176C58.7009 -0.0936542 59.8309 -0.0936542 60.8531 0.295176C61.3435 0.481032 61.7933 0.759394 62.178 1.11502C62.5604 1.47294 62.8675 1.90314 63.0813 2.38054C63.3101 2.89288 63.425 3.44847 63.4181 4.00922C63.4266 4.55441 63.3209 5.09537 63.1077 5.59752C62.8946 6.09967 62.5786 6.55195 62.18 6.92543C61.7968 7.28018 61.3489 7.55848 60.8606 7.74527C60.3536 7.94088 59.8143 8.0398 59.2707 8.03689V8.03589ZM59.2707 6.08808C59.5471 6.09084 59.8209 6.03455 60.0737 5.92302C60.3141 5.81726 60.5316 5.66588 60.7141 5.47733C60.8964 5.28711 61.039 5.06267 61.1336 4.81706C61.2344 4.55927 61.2854 4.28487 61.2842 4.00822C61.2858 3.73333 61.2347 3.46066 61.1336 3.20489C61.038 2.9614 60.8955 2.73895 60.7141 2.55011C60.5324 2.3621 60.3146 2.2124 60.0737 2.10993C59.82 2.0046 59.548 1.95036 59.2732 1.95036C58.9984 1.95036 58.7264 2.0046 58.4727 2.10993C58.2318 2.2124 58.0141 2.3621 57.8324 2.55011C57.6508 2.73881 57.5082 2.9613 57.4128 3.20489C57.3117 3.46065 57.2606 3.73333 57.2622 4.00822C57.261 4.28487 57.3121 4.55927 57.4128 4.81706C57.5075 5.06264 57.6501 5.28706 57.8324 5.47733C58.0144 5.66638 58.2316 5.81842 58.4717 5.92502C58.7234 6.03531 58.9958 6.0909 59.2707 6.08808ZM68.6445 3.7111C69.1086 3.79367 69.5351 4.01875 69.8645 4.35486C70.17 4.69353 70.3305 5.13785 70.3117 5.59288C70.3155 5.92145 70.2397 6.24608 70.0909 6.53927C69.9383 6.83163 69.7189 7.08418 69.4505 7.27658C69.1415 7.49578 68.7956 7.65792 68.4292 7.75528C67.9847 7.87446 67.5259 7.93186 67.0656 7.92585H65.5099C65.3632 7.93358 65.2165 7.91228 65.0781 7.86317C64.9398 7.81406 64.8126 7.73812 64.7039 7.63973C64.6003 7.53197 64.5203 7.40394 64.469 7.26376C64.4177 7.12358 64.3962 6.9743 64.4058 6.82539V1.21306C64.398 1.06689 64.4194 0.920645 64.4687 0.782761C64.5179 0.644877 64.5941 0.518089 64.6928 0.409723C64.8009 0.306507 64.9294 0.226801 65.07 0.175654C65.2107 0.124507 65.3605 0.103036 65.5099 0.1126H66.9532C67.7214 0.067271 68.4868 0.238917 69.1614 0.607806C69.4066 0.75581 69.6076 0.966532 69.7435 1.2181C69.8794 1.46966 69.9453 1.7529 69.9343 2.0384C69.9457 2.43061 69.8144 2.8137 69.5644 3.11685C69.3287 3.40357 69.0046 3.60472 68.6425 3.68909L68.6445 3.7111ZM67.8827 2.36854C67.8887 2.25513 67.8672 2.14194 67.8202 2.03852C67.7731 1.93509 67.7017 1.84447 67.6122 1.77429C67.3942 1.62356 67.1318 1.54995 66.8669 1.5652H66.5688V3.21589H66.8669C67.1364 3.23445 67.4039 3.15854 67.6232 3.0013C67.7121 2.92263 67.7818 2.82468 67.8267 2.71498C67.8717 2.60528 67.8908 2.48676 67.8827 2.36854ZM66.889 6.47324C67.2048 6.49192 67.5183 6.40898 67.7833 6.23665C67.8893 6.15711 67.974 6.05272 68.0299 5.93274C68.0857 5.81277 68.111 5.68091 68.1035 5.54886C68.1085 5.42186 68.0819 5.29559 68.026 5.18134C67.9701 5.06709 67.8867 4.9684 67.7833 4.89409C67.522 4.72267 67.2123 4.6397 66.9 4.65749H66.5688V6.47524L66.889 6.47324ZM74.9489 8.03589C74.4053 8.0388 73.866 7.93988 73.359 7.74427C72.8708 7.55777 72.4229 7.27982 72.0396 6.92543C71.6403 6.5523 71.3236 6.10018 71.1097 5.59802C70.8958 5.09585 70.7895 4.5547 70.7975 4.00922C70.7906 3.44847 70.9055 2.89288 71.1342 2.38054C71.3481 1.90314 71.6552 1.47294 72.0376 1.11502C72.4208 0.760267 72.8687 0.481972 73.357 0.295176C74.3791 -0.0936542 75.5091 -0.0936542 76.5313 0.295176C77.0217 0.481032 77.4715 0.759394 77.8562 1.11502C78.2386 1.47294 78.5456 1.90314 78.7595 2.38054C78.9883 2.89288 79.1032 3.44847 79.0963 4.00922C79.1048 4.55441 78.9991 5.09537 78.7859 5.59752C78.5728 6.09967 78.2568 6.55195 77.8582 6.92543C77.475 7.28018 77.0271 7.55848 76.5388 7.74527C76.0318 7.94088 75.4925 8.0398 74.9489 8.03689V8.03589ZM74.9489 6.08808C75.2253 6.09084 75.4991 6.03455 75.7519 5.92302C75.9923 5.81726 76.2098 5.66588 76.3923 5.47733C76.5746 5.28711 76.7172 5.06267 76.8118 4.81706C76.9126 4.55927 76.9636 4.28487 76.9624 4.00822C76.964 3.73333 76.9129 3.46066 76.8118 3.20489C76.7162 2.9614 76.5737 2.73895 76.3923 2.55011C76.2105 2.3621 75.9928 2.2124 75.7519 2.10993C75.4982 2.0046 75.2262 1.95036 74.9514 1.95036C74.6766 1.95036 74.4046 2.0046 74.1509 2.10993C73.91 2.2124 73.6923 2.3621 73.5106 2.55011C73.3289 2.73881 73.1864 2.9613 73.091 3.20489C72.9899 3.46065 72.9388 3.73333 72.9404 4.00822C72.9392 4.28487 72.9903 4.55927 73.091 4.81706C73.1857 5.06264 73.3283 5.28706 73.5106 5.47733C73.6931 5.66577 73.9106 5.81712 74.1509 5.92302C74.4022 6.03386 74.6742 6.09013 74.9489 6.08808Z" fill="#0669DE"/>
</svg>
