<svg width="28" height="28" viewBox="0 0 28 28" fill="none" xmlns="http://www.w3.org/2000/svg">
<path d="M14 26.4423C13.6014 26.4423 13.2171 26.2979 12.9176 26.0355C11.7864 25.0464 10.6959 24.117 9.73373 23.2971L9.72882 23.2928C6.90793 20.8889 4.47198 18.8129 2.7771 16.7679C0.882477 14.4817 0 12.3141 0 9.94608C0 7.64536 0.78891 5.5228 2.22125 3.96912C3.67068 2.39706 5.65952 1.53125 7.82202 1.53125C9.43829 1.53125 10.9185 2.04224 12.2214 3.0499C12.8789 3.55853 13.4749 4.18103 14 4.90714C14.5253 4.18103 15.1211 3.55853 15.7788 3.0499C17.0817 2.04224 18.5619 1.53125 20.1782 1.53125C22.3405 1.53125 24.3295 2.39706 25.779 3.96912C27.2113 5.5228 28 7.64536 28 9.94608C28 12.3141 27.1177 14.4817 25.2231 16.7677C23.5282 18.8129 21.0925 20.8887 18.272 23.2924C17.3082 24.1136 16.2159 25.0445 15.0822 26.0359C14.7829 26.2979 14.3984 26.4423 14 26.4423ZM7.82202 3.17145C6.12308 3.17145 4.56235 3.84949 3.42694 5.08081C2.27466 6.33072 1.63998 8.0585 1.63998 9.94608C1.63998 11.9377 2.38019 13.7189 4.03983 15.7214C5.64392 17.657 8.02988 19.6903 10.7924 22.0446L10.7976 22.0489C11.7634 22.872 12.8582 23.8051 13.9977 24.8014C15.144 23.8032 16.2405 22.8686 17.2082 22.0442C19.9706 19.6898 22.3563 17.657 23.9604 15.7214C25.6198 13.7189 26.36 11.9377 26.36 9.94608C26.36 8.0585 25.7253 6.33072 24.5731 5.08081C23.4379 3.84949 21.8769 3.17145 20.1782 3.17145C18.9336 3.17145 17.791 3.56708 16.782 4.34723C15.8829 5.04279 15.2565 5.92206 14.8893 6.53729C14.7005 6.85367 14.3681 7.04251 14 7.04251C13.6319 7.04251 13.2995 6.85367 13.1107 6.53729C12.7437 5.92206 12.1173 5.04279 11.218 4.34723C10.209 3.56708 9.06638 3.17145 7.82202 3.17145Z" fill="#999999"/>
</svg>
