<svg width="28" height="28" viewBox="0 0 28 28" fill="none" xmlns="http://www.w3.org/2000/svg">
<g clip-path="url(#clip0)">
<path d="M25.9396 4.6666C25.9396 6.76074 24.2422 8.4584 22.148 8.4584C20.0539 8.4584 18.3564 6.76074 18.3564 4.6666C18.3564 2.57266 20.0539 0.875 22.148 0.875C24.2422 0.875 25.9396 2.57266 25.9396 4.6666Z" fill="#999999"/>
<path d="M22.148 9.3334C19.5743 9.3334 17.4814 7.24033 17.4814 4.6666C17.4814 2.09308 19.5743 0 22.148 0C24.7218 0 26.8146 2.09308 26.8146 4.6666C26.8146 7.24033 24.7218 9.3334 22.148 9.3334ZM22.148 1.75C20.5392 1.75 19.2314 3.05908 19.2314 4.6666C19.2314 6.27432 20.5392 7.5834 22.148 7.5834C23.7568 7.5834 25.0646 6.27432 25.0646 4.6666C25.0646 3.05908 23.7568 1.75 22.148 1.75Z" fill="#999999"/>
<path d="M25.9396 23.3334C25.9396 25.4274 24.2422 27.125 22.148 27.125C20.0539 27.125 18.3564 25.4274 18.3564 23.3334C18.3564 21.2393 20.0539 19.5416 22.148 19.5416C24.2422 19.5416 25.9396 21.2393 25.9396 23.3334Z" fill="#999999"/>
<path d="M22.148 28C19.5743 28 17.4814 25.907 17.4814 23.3334C17.4814 20.7597 19.5743 18.6666 22.148 18.6666C24.7218 18.6666 26.8146 20.7597 26.8146 23.3334C26.8146 25.907 24.7218 28 22.148 28ZM22.148 20.4166C20.5392 20.4166 19.2314 21.7257 19.2314 23.3334C19.2314 24.9409 20.5392 26.25 22.148 26.25C23.7568 26.25 25.0646 24.9409 25.0646 23.3334C25.0646 21.7257 23.7568 20.4166 22.148 20.4166Z" fill="#999999"/>
<path d="M9.60684 14C9.60684 16.0941 7.90918 17.7916 5.81503 17.7916C3.7211 17.7916 2.02344 16.0941 2.02344 14C2.02344 11.9058 3.7211 10.2084 5.81503 10.2084C7.90918 10.2084 9.60684 11.9058 9.60684 14Z" fill="#999999"/>
<path d="M5.81503 18.6666C3.24152 18.6666 1.14844 16.5737 1.14844 14C1.14844 11.4262 3.24152 9.33337 5.81503 9.33337C8.38876 9.33337 10.4818 11.4262 10.4818 14C10.4818 16.5737 8.38876 18.6666 5.81503 18.6666ZM5.81503 11.0834C4.20624 11.0834 2.89844 12.3922 2.89844 14C2.89844 15.6077 4.20624 16.9166 5.81503 16.9166C7.42404 16.9166 8.73184 15.6077 8.73184 14C8.73184 12.3922 7.42404 11.0834 5.81503 11.0834Z" fill="#999999"/>
<path d="M8.5692 13.4401C8.1631 13.4401 7.76875 13.2289 7.55406 12.851C7.23555 12.2921 7.43165 11.5793 7.99049 11.2595L18.8158 5.0879C19.3747 4.76704 20.0875 4.96315 20.4073 5.52412C20.7258 6.08296 20.5297 6.79582 19.9709 7.11561L9.14534 13.2872C8.96333 13.391 8.76509 13.4401 8.5692 13.4401Z" fill="#999999"/>
<path d="M19.3942 23.0652C19.1981 23.0652 18.9998 23.016 18.8178 22.9122L7.99228 16.7406C7.43345 16.4221 7.23756 15.7093 7.55607 15.1491C7.8733 14.5892 8.58722 14.3921 9.14734 14.7129L19.9729 20.8845C20.5317 21.203 20.7276 21.9159 20.4091 22.476C20.1934 22.8539 19.799 23.0652 19.3942 23.0652Z" fill="#999999"/>
</g>
<defs>
<clipPath id="clip0">
<rect width="28" height="28" fill="white"/>
</clipPath>
</defs>
</svg>
